{"nbformat":4,"nbformat_minor":0,"metadata":{"colab":{"name":"AlphaPose.ipynb","provenance":[{"file_id":"https://github.com/11tegen11/AlphaPose-Player-Tracking/blob/master/AlphaPose%20Player%20Tracking.ipynb","timestamp":1592059890118}],"collapsed_sections":[],"toc_visible":true},"kernelspec":{"name":"python3","display_name":"Python 3"},"accelerator":"GPU"},"cells":[{"cell_type":"markdown","metadata":{"id":"ZMUdgWmTFWEs","colab_type":"text"},"source":["# Pose Detection with AlphaPhose\n","\n","This notebook uses an open source project [MVIG-SJTU/AlphaPose](https://github.com/MVIG-SJTU/AlphaPose) to detect/track multi person poses on a given video imported from Google Drive.\n","\n","\n","## Install AlphaPose"]},{"cell_type":"code","metadata":{"id":"JQVH0gE47FE9","colab_type":"code","outputId":"366b6a12-3456-45c8-a43a-1992573f87bb","executionInfo":{"status":"ok","timestamp":1592060012299,"user_tz":-330,"elapsed":67672,"user":{"displayName":"Manish Pawar","photoUrl":"https://lh3.googleusercontent.com/a-/AOh14Gj-LjQCgXf62nAoh-xgLym8-mBJD8D4zeNvbJkuXQ=s64","userId":"17247051654532749587"}},"colab":{"base_uri":"https://localhost:8080/","height":190}},"source":["import os\n","from os.path import exists, join, basename, splitext\n","\n","git_repo_url = 'https://github.com/MVIG-SJTU/AlphaPose.git'\n","project_name = splitext(basename(git_repo_url))[0]\n","if not exists(project_name):\n","  # clone and install dependencies\n","  !git clone -q -b pytorch --depth 1 $git_repo_url\n","  !cd $project_name && pip install -q -r requirements.txt\n","  !pip install -q youtube-dl visdom\n","  \n","import sys\n","sys.path.append(project_name)\n","import time\n","import matplotlib\n","import matplotlib.pylab as plt\n","plt.rcParams[\"axes.grid\"] = False\n","\n","from IPython.display import YouTubeVideo"],"execution_count":1,"outputs":[{"output_type":"stream","text":["\u001b[K     |████████████████████████████████| 484.0MB 32kB/s \n","\u001b[K     |████████████████████████████████| 51kB 7.2MB/s \n","\u001b[K     |████████████████████████████████| 686kB 52.3MB/s \n","\u001b[31mERROR: Could not find a version that satisfies the requirement ntpath (from -r requirements.txt (line 9)) (from versions: none)\u001b[0m\n","\u001b[31mERROR: No matching distribution found for ntpath (from -r requirements.txt (line 9))\u001b[0m\n","\u001b[K     |████████████████████████████████| 1.8MB 6.6MB/s \n","\u001b[K     |████████████████████████████████| 204kB 51.4MB/s \n","\u001b[?25h  Building wheel for visdom (setup.py) ... \u001b[?25l\u001b[?25hdone\n","  Building wheel for torchfile (setup.py) ... \u001b[?25l\u001b[?25hdone\n"],"name":"stdout"}]},{"cell_type":"markdown","metadata":{"id":"ibzztWRQF3-f","colab_type":"text"},"source":["## Download pretrained models"]},{"cell_type":"code","metadata":{"id":"FbmT4eNY8ST6","colab_type":"code","outputId":"c79224c5-66fd-46ee-a6bc-c5dc5291e69e","executionInfo":{"status":"ok","timestamp":1592060043920,"user_tz":-330,"elapsed":99237,"user":{"displayName":"Manish Pawar","photoUrl":"https://lh3.googleusercontent.com/a-/AOh14Gj-LjQCgXf62nAoh-xgLym8-mBJD8D4zeNvbJkuXQ=s64","userId":"17247051654532749587"}},"colab":{"base_uri":"https://localhost:8080/","height":221}},"source":["def download_from_google_drive(file_id, file_name):\n","  # download a file from the Google Drive link\n","  !rm -f ./cookie\n","  !curl -c ./cookie -s -L \"https://drive.google.com/uc?export=download&id=$file_id\" > /dev/null\n","  confirm_text = !awk '/download/ {print $NF}' ./cookie\n","  confirm_text = confirm_text[0]\n","  !curl -Lb ./cookie \"https://drive.google.com/uc?export=download&confirm=$confirm_text&id=$file_id\" -o $file_name\n","  \n","\n","  \n","pretrained_model_path = join(project_name, 'models/sppe/duc_se.pth')\n","if not exists(pretrained_model_path):\n","  # download the pretrained model\n","  download_from_google_drive('1OPORTWB2cwd5YTVBX-NE8fsauZJWsrtW', pretrained_model_path)\n","  \n","yolo_pretrained_model_path = join(project_name, 'models/yolo/yolov3-spp.weights')\n","if not exists(yolo_pretrained_model_path):\n","  # download the YOLO weights\n","  download_from_google_drive('1D47msNOOiJKvPOXlnpyzdKA3k6E97NTC', yolo_pretrained_model_path)"],"execution_count":2,"outputs":[{"output_type":"stream","text":["  % Total    % Received % Xferd  Average Speed   Time    Time     Time  Current\n","                                 Dload  Upload   Total   Spent    Left  Speed\n","\r  0     0    0     0    0     0      0      0 --:--:-- --:--:-- --:--:--     0\r100   408    0   408    0     0   1421      0 --:--:-- --:--:-- --:--:--  1421\n","\r  0     0    0     0    0     0      0      0 --:--:-- --:--:-- --:--:--     0\r  0     0    0     0    0     0      0      0 --:--:-- --:--:-- --:--:--     0\n","  0     0    0     0    0     0      0      0 --:--:-- --:--:-- --:--:--     0\n","100  227M    0  227M    0     0  55.9M      0 --:--:--  0:00:04 --:--:-- 83.4M\n","  % Total    % Received % Xferd  Average Speed   Time    Time     Time  Current\n","                                 Dload  Upload   Total   Spent    Left  Speed\n","100   408    0   408    0     0   1431      0 --:--:-- --:--:-- --:--:--  1431\n","  0     0    0     0    0     0      0      0 --:--:-- --:--:-- --:--:--     0\n","  0     0    0     0    0     0      0      0 --:--:-- --:--:-- --:--:--     0\n","100  240M    0  240M    0     0  45.6M      0 --:--:--  0:00:05 --:--:-- 58.7M\n"],"name":"stdout"}]},{"cell_type":"markdown","metadata":{"id":"fMJI7RgmF_xO","colab_type":"text"},"source":["## Detect poses on a video\n","\n","Instructions:\n","- Name the file you want to use source.mp4\n","- Place source.mp4 file in a map on your Google Drive, called 'Videos/in/'"]},{"cell_type":"markdown","metadata":{"id":"MJblYRLkGTU2","colab_type":"text"},"source":["The code below cuts the source video to 10 seconds and performs the pose detection. The resulting video can then be downloaded from the left panel."]},{"cell_type":"code","metadata":{"id":"lmJ2mAmVIKgN","colab_type":"code","outputId":"050f6812-5472-466c-bd73-cb84e95bf024","executionInfo":{"status":"ok","timestamp":1592060121195,"user_tz":-330,"elapsed":176469,"user":{"displayName":"Manish Pawar","photoUrl":"https://lh3.googleusercontent.com/a-/AOh14Gj-LjQCgXf62nAoh-xgLym8-mBJD8D4zeNvbJkuXQ=s64","userId":"17247051654532749587"}},"colab":{"base_uri":"https://localhost:8080/","height":122}},"source":["from google.colab import drive\n","drive.mount('/content/drive')"],"execution_count":3,"outputs":[{"output_type":"stream","text":["Go to this URL in a browser: https://accounts.google.com/o/oauth2/auth?client_id=947318989803-6bn6qk8qdgf4n4g3pfee6491hc0brc4i.apps.googleusercontent.com&redirect_uri=urn%3aietf%3awg%3aoauth%3a2.0%3aoob&response_type=code&scope=email%20https%3a%2f%2fwww.googleapis.com%2fauth%2fdocs.test%20https%3a%2f%2fwww.googleapis.com%2fauth%2fdrive%20https%3a%2f%2fwww.googleapis.com%2fauth%2fdrive.photos.readonly%20https%3a%2f%2fwww.googleapis.com%2fauth%2fpeopleapi.readonly\n","\n","Enter your authorization code:\n","··········\n","Mounted at /content/drive\n"],"name":"stdout"}]},{"cell_type":"code","metadata":{"id":"szrxdrgjvpeF","colab_type":"code","outputId":"b9a67867-8f06-4929-8fe0-c7f5ec758975","executionInfo":{"status":"ok","timestamp":1592060306862,"user_tz":-330,"elapsed":87679,"user":{"displayName":"Manish Pawar","photoUrl":"https://lh3.googleusercontent.com/a-/AOh14Gj-LjQCgXf62nAoh-xgLym8-mBJD8D4zeNvbJkuXQ=s64","userId":"17247051654532749587"}},"colab":{"base_uri":"https://localhost:8080/","height":1000}},"source":["\n","\n","\n","\n","\n","\n"," #run AlpaPose on video from Google Drive\n","# clear previous files\n","!rm -rf AlphaPose_video.avi video.mp4\n","# cut the first 5 seconds and copy video to AlphaPose directory\n","!ffmpeg -y -loglevel info -i \"/content/drive/My Drive/B99 season 7/B99 S7E8.mp4\" -t 10 \"AlphaPose/video.mp4\"\n","!cd $project_name && python3 video_demo.py --sp --video video.mp4 --outdir .. --save_video\n","# convert the result into MP4\n","!ffmpeg -y -loglevel info -i AlphaPose_video.avi AlphaPose_video.mp4\n","# copy result to Google Drive - disabled, too slow, advice manual download from left panel\n","#from shutil import copyfile\n","#copyfile(AlphaPose_video.mp4, \"drive/My Drive/Videos/out/AlphaPose_video.mp4\")"],"execution_count":6,"outputs":[{"output_type":"stream","text":["ffmpeg version 3.4.6-0ubuntu0.18.04.1 Copyright (c) 2000-2019 the FFmpeg developers\n","  built with gcc 7 (Ubuntu 7.3.0-16ubuntu3)\n","  configuration: --prefix=/usr --extra-version=0ubuntu0.18.04.1 --toolchain=hardened --libdir=/usr/lib/x86_64-linux-gnu --incdir=/usr/include/x86_64-linux-gnu --enable-gpl --disable-stripping --enable-avresample --enable-avisynth --enable-gnutls --enable-ladspa --enable-libass --enable-libbluray --enable-libbs2b --enable-libcaca --enable-libcdio --enable-libflite --enable-libfontconfig --enable-libfreetype --enable-libfribidi --enable-libgme --enable-libgsm --enable-libmp3lame --enable-libmysofa --enable-libopenjpeg --enable-libopenmpt --enable-libopus --enable-libpulse --enable-librubberband --enable-librsvg --enable-libshine --enable-libsnappy --enable-libsoxr --enable-libspeex --enable-libssh --enable-libtheora --enable-libtwolame --enable-libvorbis --enable-libvpx --enable-libwavpack --enable-libwebp --enable-libx265 --enable-libxml2 --enable-libxvid --enable-libzmq --enable-libzvbi --enable-omx --enable-openal --enable-opengl --enable-sdl2 --enable-libdc1394 --enable-libdrm --enable-libiec61883 --enable-chromaprint --enable-frei0r --enable-libopencv --enable-libx264 --enable-shared\n","  libavutil      55. 78.100 / 55. 78.100\n","  libavcodec     57.107.100 / 57.107.100\n","  libavformat    57. 83.100 / 57. 83.100\n","  libavdevice    57. 10.100 / 57. 10.100\n","  libavfilter     6.107.100 /  6.107.100\n","  libavresample   3.  7.  0 /  3.  7.  0\n","  libswscale      4.  8.100 /  4.  8.100\n","  libswresample   2.  9.100 /  2.  9.100\n","  libpostproc    54.  7.100 / 54.  7.100\n","Input #0, mov,mp4,m4a,3gp,3g2,mj2, from '/content/drive/My Drive/B99 season 7/B99 S7E8.mp4':\n","  Metadata:\n","    major_brand     : isom\n","    minor_version   : 512\n","    compatible_brands: isomiso2avc1mp41\n","    encoder         : Lavf57.83.100\n","  Duration: 00:21:19.45, start: 0.000000, bitrate: 2329 kb/s\n","    Stream #0:0(und): Video: h264 (Constrained Baseline) (avc1 / 0x31637661), yuv420p, 1280x718 [SAR 1:1 DAR 640:359], 2195 kb/s, 23.98 fps, 23.98 tbr, 24k tbn, 47.95 tbc (default)\n","    Metadata:\n","      handler_name    : VideoHandler\n","    Stream #0:1(und): Audio: aac (LC) (mp4a / 0x6134706D), 48000 Hz, stereo, fltp, 129 kb/s (default)\n","    Metadata:\n","      handler_name    : SoundHandler\n","Stream mapping:\n","  Stream #0:0 -> #0:0 (h264 (native) -> h264 (libx264))\n","  Stream #0:1 -> #0:1 (aac (native) -> aac (native))\n","Press [q] to stop, [?] for help\n","\u001b[1;36m[libx264 @ 0x556d41022800] \u001b[0musing SAR=1/1\n","\u001b[1;36m[libx264 @ 0x556d41022800] \u001b[0musing cpu capabilities: MMX2 SSE2Fast SSSE3 SSE4.2 AVX FMA3 BMI2 AVX2 AVX512\n","\u001b[1;36m[libx264 @ 0x556d41022800] \u001b[0mprofile High, level 3.1\n","\u001b[1;36m[libx264 @ 0x556d41022800] \u001b[0m264 - core 152 r2854 e9a5903 - H.264/MPEG-4 AVC codec - Copyleft 2003-2017 - http://www.videolan.org/x264.html - options: cabac=1 ref=3 deblock=1:0:0 analyse=0x3:0x113 me=hex subme=7 psy=1 psy_rd=1.00:0.00 mixed_ref=1 me_range=16 chroma_me=1 trellis=1 8x8dct=1 cqm=0 deadzone=21,11 fast_pskip=1 chroma_qp_offset=-2 threads=3 lookahead_threads=1 sliced_threads=0 nr=0 decimate=1 interlaced=0 bluray_compat=0 constrained_intra=0 bframes=3 b_pyramid=2 b_adapt=1 b_bias=0 direct=1 weightb=1 open_gop=0 weightp=2 keyint=250 keyint_min=23 scenecut=40 intra_refresh=0 rc_lookahead=40 rc=crf mbtree=1 crf=23.0 qcomp=0.60 qpmin=0 qpmax=69 qpstep=4 ip_ratio=1.40 aq=1:1.00\n","Output #0, mp4, to 'AlphaPose/video.mp4':\n","  Metadata:\n","    major_brand     : isom\n","    minor_version   : 512\n","    compatible_brands: isomiso2avc1mp41\n","    encoder         : Lavf57.83.100\n","    Stream #0:0(und): Video: h264 (libx264) (avc1 / 0x31637661), yuv420p, 1280x718 [SAR 1:1 DAR 640:359], q=-1--1, 23.98 fps, 24k tbn, 23.98 tbc (default)\n","    Metadata:\n","      handler_name    : VideoHandler\n","      encoder         : Lavc57.107.100 libx264\n","    Side data:\n","      cpb: bitrate max/min/avg: 0/0/0 buffer size: 0 vbv_delay: -1\n","    Stream #0:1(und): Audio: aac (LC) (mp4a / 0x6134706D), 48000 Hz, stereo, fltp, 128 kb/s (default)\n","    Metadata:\n","      handler_name    : SoundHandler\n","      encoder         : Lavc57.107.100 aac\n","frame=  240 fps= 15 q=-1.0 Lsize=    2070kB time=00:00:10.00 bitrate=1694.6kbits/s speed=0.629x    \n","video:1903kB audio:159kB subtitle:0kB other streams:0kB global headers:0kB muxing overhead: 0.367545%\n","\u001b[1;36m[libx264 @ 0x556d41022800] \u001b[0mframe I:6     Avg QP:18.95  size: 30442\n","\u001b[1;36m[libx264 @ 0x556d41022800] \u001b[0mframe P:117   Avg QP:21.69  size: 11090\n","\u001b[1;36m[libx264 @ 0x556d41022800] \u001b[0mframe B:117   Avg QP:23.13  size:  3996\n","\u001b[1;36m[libx264 @ 0x556d41022800] \u001b[0mconsecutive B-frames: 31.7%  5.8% 12.5% 50.0%\n","\u001b[1;36m[libx264 @ 0x556d41022800] \u001b[0mmb I  I16..4: 34.4% 47.2% 18.4%\n","\u001b[1;36m[libx264 @ 0x556d41022800] \u001b[0mmb P  I16..4: 13.8% 15.1%  0.7%  P16..4: 39.7%  7.9%  2.9%  0.0%  0.0%    skip:19.8%\n","\u001b[1;36m[libx264 @ 0x556d41022800] \u001b[0mmb B  I16..4:  1.7%  1.7%  0.0%  B16..8: 43.5%  2.5%  0.3%  direct: 2.5%  skip:47.9%  L0:54.1% L1:43.8% BI: 2.2%\n","\u001b[1;36m[libx264 @ 0x556d41022800] \u001b[0m8x8 transform intra:50.3% inter:85.8%\n","\u001b[1;36m[libx264 @ 0x556d41022800] \u001b[0mcoded y,uvDC,uvAC intra: 24.6% 56.0% 7.6% inter: 9.1% 19.4% 0.1%\n","\u001b[1;36m[libx264 @ 0x556d41022800] \u001b[0mi16 v,h,dc,p: 40% 30% 14% 16%\n","\u001b[1;36m[libx264 @ 0x556d41022800] \u001b[0mi8 v,h,dc,ddl,ddr,vr,hd,vl,hu: 31% 22% 31%  2%  3%  3%  4%  2%  2%\n","\u001b[1;36m[libx264 @ 0x556d41022800] \u001b[0mi4 v,h,dc,ddl,ddr,vr,hd,vl,hu: 33% 24% 13%  4%  6%  6%  6%  5%  4%\n","\u001b[1;36m[libx264 @ 0x556d41022800] \u001b[0mi8c dc,h,v,p: 51% 22% 24%  3%\n","\u001b[1;36m[libx264 @ 0x556d41022800] \u001b[0mWeighted P-Frames: Y:1.7% UV:1.7%\n","\u001b[1;36m[libx264 @ 0x556d41022800] \u001b[0mref P L0: 78.4%  9.1%  9.8%  2.7%\n","\u001b[1;36m[libx264 @ 0x556d41022800] \u001b[0mref B L0: 93.8%  5.2%  1.0%\n","\u001b[1;36m[libx264 @ 0x556d41022800] \u001b[0mref B L1: 97.1%  2.9%\n","\u001b[1;36m[libx264 @ 0x556d41022800] \u001b[0mkb/s:1556.68\n","\u001b[1;36m[aac @ 0x556d41023700] \u001b[0mQavg: 571.817\n","Loading YOLO model..\n","/pytorch/torch/csrc/utils/python_arg_parser.cpp:756: UserWarning: This overload of nonzero is deprecated:\n","\tnonzero(Tensor input, *, Tensor out)\n","Consider using one of the following signatures instead:\n","\tnonzero(Tensor input, *, bool as_tuple)\n","Loading pose model from ./models/sppe/duc_se.pth\n","100% 240/240 [00:24<00:00,  9.79it/s]\n","===========================> Finish Model Running.\n","===========================> Rendering remaining images in the queue...\n","===========================> If this step takes too long, you can enable the --vis_fast flag to use fast rendering (real-time).\n","ffmpeg version 3.4.6-0ubuntu0.18.04.1 Copyright (c) 2000-2019 the FFmpeg developers\n","  built with gcc 7 (Ubuntu 7.3.0-16ubuntu3)\n","  configuration: --prefix=/usr --extra-version=0ubuntu0.18.04.1 --toolchain=hardened --libdir=/usr/lib/x86_64-linux-gnu --incdir=/usr/include/x86_64-linux-gnu --enable-gpl --disable-stripping --enable-avresample --enable-avisynth --enable-gnutls --enable-ladspa --enable-libass --enable-libbluray --enable-libbs2b --enable-libcaca --enable-libcdio --enable-libflite --enable-libfontconfig --enable-libfreetype --enable-libfribidi --enable-libgme --enable-libgsm --enable-libmp3lame --enable-libmysofa --enable-libopenjpeg --enable-libopenmpt --enable-libopus --enable-libpulse --enable-librubberband --enable-librsvg --enable-libshine --enable-libsnappy --enable-libsoxr --enable-libspeex --enable-libssh --enable-libtheora --enable-libtwolame --enable-libvorbis --enable-libvpx --enable-libwavpack --enable-libwebp --enable-libx265 --enable-libxml2 --enable-libxvid --enable-libzmq --enable-libzvbi --enable-omx --enable-openal --enable-opengl --enable-sdl2 --enable-libdc1394 --enable-libdrm --enable-libiec61883 --enable-chromaprint --enable-frei0r --enable-libopencv --enable-libx264 --enable-shared\n","  libavutil      55. 78.100 / 55. 78.100\n","  libavcodec     57.107.100 / 57.107.100\n","  libavformat    57. 83.100 / 57. 83.100\n","  libavdevice    57. 10.100 / 57. 10.100\n","  libavfilter     6.107.100 /  6.107.100\n","  libavresample   3.  7.  0 /  3.  7.  0\n","  libswscale      4.  8.100 /  4.  8.100\n","  libswresample   2.  9.100 /  2.  9.100\n","  libpostproc    54.  7.100 / 54.  7.100\n","Input #0, avi, from 'AlphaPose_video.avi':\n","  Metadata:\n","    encoder         : Lavf58.35.100\n","  Duration: 00:00:10.01, start: 0.000000, bitrate: 3904 kb/s\n","    Stream #0:0: Video: mpeg4 (Simple Profile) (XVID / 0x44495658), yuv420p, 1280x718 [SAR 1:1 DAR 640:359], 3911 kb/s, 23.98 fps, 23.98 tbr, 23.98 tbn, 2997 tbc\n","Stream mapping:\n","  Stream #0:0 -> #0:0 (mpeg4 (native) -> h264 (libx264))\n","Press [q] to stop, [?] for help\n","\u001b[1;36m[libx264 @ 0x560b47f3de00] \u001b[0musing SAR=1/1\n","\u001b[1;36m[libx264 @ 0x560b47f3de00] \u001b[0musing cpu capabilities: MMX2 SSE2Fast SSSE3 SSE4.2 AVX FMA3 BMI2 AVX2 AVX512\n","\u001b[1;36m[libx264 @ 0x560b47f3de00] \u001b[0mprofile High, level 3.1\n","\u001b[1;36m[libx264 @ 0x560b47f3de00] \u001b[0m264 - core 152 r2854 e9a5903 - H.264/MPEG-4 AVC codec - Copyleft 2003-2017 - http://www.videolan.org/x264.html - options: cabac=1 ref=3 deblock=1:0:0 analyse=0x3:0x113 me=hex subme=7 psy=1 psy_rd=1.00:0.00 mixed_ref=1 me_range=16 chroma_me=1 trellis=1 8x8dct=1 cqm=0 deadzone=21,11 fast_pskip=1 chroma_qp_offset=-2 threads=3 lookahead_threads=1 sliced_threads=0 nr=0 decimate=1 interlaced=0 bluray_compat=0 constrained_intra=0 bframes=3 b_pyramid=2 b_adapt=1 b_bias=0 direct=1 weightb=1 open_gop=0 weightp=2 keyint=250 keyint_min=23 scenecut=40 intra_refresh=0 rc_lookahead=40 rc=crf mbtree=1 crf=23.0 qcomp=0.60 qpmin=0 qpmax=69 qpstep=4 ip_ratio=1.40 aq=1:1.00\n","Output #0, mp4, to 'AlphaPose_video.mp4':\n","  Metadata:\n","    encoder         : Lavf57.83.100\n","    Stream #0:0: Video: h264 (libx264) (avc1 / 0x31637661), yuv420p, 1280x718 [SAR 1:1 DAR 640:359], q=-1--1, 23.98 fps, 24k tbn, 23.98 tbc\n","    Metadata:\n","      encoder         : Lavc57.107.100 libx264\n","    Side data:\n","      cpb: bitrate max/min/avg: 0/0/0 buffer size: 0 vbv_delay: -1\n","frame=  240 fps= 16 q=-1.0 Lsize=    2372kB time=00:00:09.88 bitrate=1966.0kbits/s speed=0.648x    \n","video:2369kB audio:0kB subtitle:0kB other streams:0kB global headers:0kB muxing overhead: 0.129260%\n","\u001b[1;36m[libx264 @ 0x560b47f3de00] \u001b[0mframe I:5     Avg QP:18.53  size: 29412\n","\u001b[1;36m[libx264 @ 0x560b47f3de00] \u001b[0mframe P:137   Avg QP:21.72  size: 12678\n","\u001b[1;36m[libx264 @ 0x560b47f3de00] \u001b[0mframe B:98    Avg QP:23.62  size:  5525\n","\u001b[1;36m[libx264 @ 0x560b47f3de00] \u001b[0mconsecutive B-frames: 38.8% 16.7% 11.2% 33.3%\n","\u001b[1;36m[libx264 @ 0x560b47f3de00] \u001b[0mmb I  I16..4: 22.6% 74.5%  3.0%\n","\u001b[1;36m[libx264 @ 0x560b47f3de00] \u001b[0mmb P  I16..4:  7.2% 19.3%  0.6%  P16..4: 45.2%  7.1%  2.9%  0.0%  0.0%    skip:17.7%\n","\u001b[1;36m[libx264 @ 0x560b47f3de00] \u001b[0mmb B  I16..4:  1.5%  3.9%  0.1%  B16..8: 41.1%  4.1%  0.7%  direct: 2.3%  skip:46.2%  L0:56.0% L1:40.7% BI: 3.2%\n","\u001b[1;36m[libx264 @ 0x560b47f3de00] \u001b[0m8x8 transform intra:71.3% inter:86.7%\n","\u001b[1;36m[libx264 @ 0x560b47f3de00] \u001b[0mcoded y,uvDC,uvAC intra: 35.4% 59.2% 7.6% inter: 10.9% 17.7% 0.7%\n","\u001b[1;36m[libx264 @ 0x560b47f3de00] \u001b[0mi16 v,h,dc,p: 43% 30% 17% 10%\n","\u001b[1;36m[libx264 @ 0x560b47f3de00] \u001b[0mi8 v,h,dc,ddl,ddr,vr,hd,vl,hu: 32% 24% 34%  2%  1%  2%  2%  2%  1%\n","\u001b[1;36m[libx264 @ 0x560b47f3de00] \u001b[0mi4 v,h,dc,ddl,ddr,vr,hd,vl,hu: 49% 16% 13%  3%  4%  5%  3%  5%  2%\n","\u001b[1;36m[libx264 @ 0x560b47f3de00] \u001b[0mi8c dc,h,v,p: 45% 24% 28%  3%\n","\u001b[1;36m[libx264 @ 0x560b47f3de00] \u001b[0mWeighted P-Frames: Y:1.5% UV:1.5%\n","\u001b[1;36m[libx264 @ 0x560b47f3de00] \u001b[0mref P L0: 75.7%  8.5% 12.0%  3.8%  0.0%\n","\u001b[1;36m[libx264 @ 0x560b47f3de00] \u001b[0mref B L0: 87.7% 10.5%  1.8%\n","\u001b[1;36m[libx264 @ 0x560b47f3de00] \u001b[0mref B L1: 96.6%  3.4%\n","\u001b[1;36m[libx264 @ 0x560b47f3de00] \u001b[0mkb/s:1938.41\n"],"name":"stdout"}]},{"cell_type":"code","metadata":{"id":"er_h3fVmHMhO","colab_type":"code","colab":{}},"source":[""],"execution_count":0,"outputs":[]}]}